# xmcd
#
# Track frame offsets:
#	150
#	13035
#	28347
#	37955
#	50360
#	58267
#	71089
#	86663
#	101543
#	115355
#	129751
#	142678
#	164313
#	179986
#	189444
#	201032
#	216182
#	227180
#	239377
#	249747
#	265467
#	282602
#	294646
#
# Disc length: 4128 seconds
#
# Revision: 0
# Processed by: cddbd v1.5.2PL0 Copyright (c) Steve Scherf et al.
# Submitted via: audiograbber 1.83.01
#
DISCID=64101e17
DTITLE=Terry Gordon - I forgot to remember to forget
DYEAR=1900
DGENRE=Country
TTITLE0=Fourteen minutes old
TTITLE1=Country bumkin
TTITLE2=Country is
TTITLE3=Hello love
TTITLE4=Guess things happen that way
TTITLE5=I love you because
TTITLE6=Soldiers last letter
TTITLE7=Dont the girls all get prettier at closing time
TTITLE8=Skeletons
TTITLE9=Missing in action
TTITLE10=One for the road
TTITLE11=Old habits
TTITLE12=The man in black is gone
TTITLE13=I forgot to remember to forget
TTITLE14=It only hurts me when I cry
TTITLE15=Grandmother
TTITLE16=Meat and potato man
TTITLE17=Just one time
TTITLE18=Down the trail of achin hearts
TTITLE19=Time
TTITLE20=Goodbye mary
TTITLE21=Thanks a lot
TTITLE22=Wild bush flowers
EXTD=
EXTT0=
EXTT1=
EXTT2=
EXTT3=
EXTT4=
EXTT5=
EXTT6=
EXTT7=
EXTT8=
EXTT9=
EXTT10=
EXTT11=
EXTT12=
EXTT13=
EXTT14=
EXTT15=
EXTT16=
EXTT17=
EXTT18=
EXTT19=
EXTT20=
EXTT21=
EXTT22=
PLAYORDER=
